<?xml version="1.0" encoding="iso-8859-1"?>
<!-- Generator: Adobe Illustrator 16.0.0, SVG Export Plug-In . SVG Version: 6.00 Build 0)  -->
<!DOCTYPE svg PUBLIC "-//W3C//DTD SVG 1.1//EN" "http://www.w3.org/Graphics/SVG/1.1/DTD/svg11.dtd">
<svg version="1.1" id="Layer_1" xmlns="http://www.w3.org/2000/svg" xmlns:xlink="http://www.w3.org/1999/xlink" x="0px" y="0px"
	 width="1435px" height="1435px" viewBox="0 0 1435 1435" style="enable-background:new 0 0 1435 1435;" xml:space="preserve">
<rect style="display:none;" width="1435" height="1435"/>
<linearGradient id="SVGID_1_" gradientUnits="userSpaceOnUse" x1="908.2871" y1="877.5078" x2="927.584" y2="877.5078">
	<stop  offset="0" style="stop-color:#989899"/>
	<stop  offset="0.25" style="stop-color:#FFFFFF"/>
	<stop  offset="0.5" style="stop-color:#989899"/>
	<stop  offset="0.75" style="stop-color:#FFFFFF"/>
	<stop  offset="1" style="stop-color:#989899"/>
</linearGradient>
<path style="fill:url(#SVGID_1_);" d="M914.391,902.149c0,0-1.667-3.652,3.546-6.913c5.22-3.257,9.775-10.298,9.645-20.075
	c-0.13-9.778-6.718-22.295-6.718-22.295s-8.926,15.123-12.576,17.605c0,0,6.337,5.731,6.104,14.34c0,0,4.979-9.91,6.018-14.608
	c0,0,3.526,5.867-5.342,22.69C915.066,892.894,911.499,899.28,914.391,902.149"/>
<linearGradient id="SVGID_2_" gradientUnits="userSpaceOnUse" x1="881.9766" y1="875.0332" x2="942.3604" y2="875.0332">
	<stop  offset="0" style="stop-color:#989899"/>
	<stop  offset="0.25" style="stop-color:#FFFFFF"/>
	<stop  offset="0.5" style="stop-color:#989899"/>
	<stop  offset="0.75" style="stop-color:#FFFFFF"/>
	<stop  offset="1" style="stop-color:#989899"/>
</linearGradient>
<path style="fill:url(#SVGID_2_);" d="M912.172,844.842c-16.645,0-30.195,13.542-30.195,30.188
	c0,16.653,13.551,30.196,30.195,30.196c16.643,0,30.188-13.543,30.188-30.196C942.36,858.384,928.814,844.842,912.172,844.842
	 M912.172,902.466c-1.068,0-2.114-0.068-3.15-0.189c-0.041-0.133-0.066-0.26-0.066-0.387c-0.028-1.114,0.343-2.298,0.592-3.372
	c0.748-3.24,1.996-6.427,2.061-9.783c0.057-2.537-0.35-5.085-1.048-7.517c-1.91-6.697-6.168-12.52-11.66-16.745
	c-0.337-0.259-3.428,6.565-3.561,6.957c-1.667,4.974-2.104,10.581-0.593,15.655c0.56,1.872,1.501,3.521,2.686,5.074
	c0.677,0.885,1.426,1.717,2.216,2.501c0.433,0.427,3.085,2.234,3.102,2.667c0,0-0.324-9.778-3.589-15.518
	c0.062,0.111,0.405,0.238,0.511,0.312c0.482,0.333,0.92,0.719,1.327,1.131c1.619,1.622,2.781,3.664,3.658,5.766
	c1.024,2.469,1.646,5.09,1.982,7.738c0.188,1.502,0.122,3.584,0.638,5.261c-12.795-2.315-22.541-13.526-22.541-26.987
	c0-15.128,12.31-27.435,27.437-27.435c15.128,0,27.44,12.307,27.44,27.435C939.612,890.157,927.3,902.466,912.172,902.466"/>
<g>
	<path style="fill:#FFFFFF;" d="M912.169,848.455c14.754,0,26.712,11.96,26.712,26.712c0,14.754-11.958,26.713-26.712,26.713
		s-26.713-11.959-26.713-26.713C885.456,860.415,897.415,848.455,912.169,848.455 M912.169,838.455
		c-20.243,0-36.713,16.469-36.713,36.712c0,20.244,16.47,36.713,36.713,36.713s36.712-16.47,36.712-36.713
		C948.881,854.924,932.412,838.455,912.169,838.455L912.169,838.455z"/>
</g>
<g>
	<linearGradient id="SVGID_3_" gradientUnits="userSpaceOnUse" x1="635.9785" y1="989.8945" x2="635.9785" y2="604.5688">
		<stop  offset="0" style="stop-color:#989899"/>
		<stop  offset="0.25" style="stop-color:#FFFFFF"/>
		<stop  offset="0.5" style="stop-color:#989899"/>
		<stop  offset="0.75" style="stop-color:#FFFFFF"/>
		<stop  offset="1" style="stop-color:#989899"/>
	</linearGradient>
	<path style="fill:url(#SVGID_3_);stroke:#686868;stroke-width:13;stroke-miterlimit:10;" d="M832.967,784.346
		c0,0-1.238-7.544-9.019-7.544s-16.679,0-16.679,0h-1.815c-1.882-15.763-5.91-30.865-11.788-45.007l16.586-10.131
		c0,0,6.064-3.895,1.662-11.1c-4.401-7.205-6.214-10.087-6.214-10.087l0.037-0.023l-6.729-11.015c0,0-4.989-5.792-11.627-1.736
		c-5.762,3.52-12.239,7.477-13.854,8.462c-9.553-12.978-20.898-24.55-33.669-34.36l8.372-14.167c0,0,3.527-6.285-3.742-10.581
		c-7.269-4.296-10.223-5.99-10.223-5.99l0.023-0.038l-11.111-6.567c0,0-7.126-2.772-11.084,3.925
		c-2.786,4.715-5.852,9.903-7.425,12.565c-15.064-6.63-31.269-11.146-48.238-13.173v-16.003c0,0-0.162-7.206-8.605-7.206
		c-8.442,0-11.846,0.044-11.846,0.044v-0.044h-12.908c0,0-7.544,1.238-7.544,9.018c0,5.247,0,10.999,0,14.191
		c-17.048,2.036-33.321,6.583-48.443,13.262c-1.557-2.634-4.661-7.887-7.479-12.654c-3.958-6.697-11.084-3.925-11.084-3.925
		l-11.111,6.567l0.023,0.038c0,0-2.953,1.694-10.223,5.99c-7.269,4.296-3.742,10.581-3.742,10.581l8.454,14.303
		c-12.736,9.808-24.048,21.372-33.573,34.333c-1.247-0.762-8.028-4.904-14.03-8.571c-6.639-4.056-11.628,1.736-11.628,1.736
		l-6.729,11.015l0.038,0.023c0,0-1.813,2.882-6.215,10.087c-4.401,7.205,1.663,11.1,1.663,11.1l16.791,10.257
		c-5.85,14.106-9.86,29.166-11.737,44.881h-20.307c0,0-7.205,0.162-7.205,8.605c0,7.893,0.039,11.38,0.044,11.802h-0.044v12.908
		c0,0,1.237,7.545,9.018,7.545s16.681,0,16.681,0h1.813c1.883,15.762,5.911,30.865,11.788,45.007L461.706,872.8
		c0,0-6.064,3.894-1.663,11.1c4.402,7.206,6.215,10.087,6.215,10.087l-0.038,0.022l6.729,11.016c0,0,4.989,5.792,11.628,1.736
		c5.761-3.52,12.238-7.478,13.852-8.462c9.554,12.977,20.898,24.549,33.671,34.36l-8.373,14.167c0,0-3.526,6.286,3.742,10.582
		c7.27,4.296,10.222,5.99,10.222,5.99l-0.022,0.037l11.111,6.567c0,0,7.126,2.772,11.084-3.925
		c2.786-4.715,5.852-9.903,7.425-12.564c15.065,6.629,31.269,11.146,48.239,13.172v16.004c0,0,0.161,7.206,8.604,7.206
		s11.848-0.044,11.848-0.044v0.044h12.907c0,0,7.544-1.238,7.544-9.018c0-5.247,0-10.999,0-14.191
		c17.047-2.035,33.32-6.583,48.442-13.262c1.557,2.633,4.661,7.887,7.478,12.654c3.958,6.697,11.084,3.925,11.084,3.925
		l11.112-6.567l-0.023-0.037c0,0,2.953-1.694,10.223-5.99c7.269-4.296,3.742-10.582,3.742-10.582l-8.453-14.302
		c12.735-9.81,24.046-21.374,33.571-34.334c1.247,0.763,8.029,4.905,14.031,8.572c6.638,4.056,11.628-1.736,11.628-1.736
		l6.729-11.016l-0.037-0.022c0,0,1.813-2.882,6.214-10.087c4.402-7.206-1.662-11.1-1.662-11.1l-16.79-10.257
		c5.849-14.106,9.859-29.165,11.735-44.881h20.307c0,0,7.206-0.162,7.206-8.606c0-7.892-0.039-11.38-0.043-11.801h0.043V784.346z"/>
	<linearGradient id="SVGID_4_" gradientUnits="userSpaceOnUse" x1="494.5195" y1="797.2314" x2="777.4375" y2="797.2314">
		<stop  offset="0" style="stop-color:#989899"/>
		<stop  offset="0.25" style="stop-color:#FFFFFF"/>
		<stop  offset="0.5" style="stop-color:#989899"/>
		<stop  offset="0.75" style="stop-color:#FFFFFF"/>
		<stop  offset="1" style="stop-color:#989899"/>
	</linearGradient>
	<linearGradient id="SVGID_5_" gradientUnits="userSpaceOnUse" x1="635.9785" y1="947.6904" x2="635.9785" y2="646.7729">
		<stop  offset="0" style="stop-color:#CDCCCB"/>
		<stop  offset="1" style="stop-color:#666766"/>
	</linearGradient>
	
		<circle style="fill:url(#SVGID_4_);stroke:url(#SVGID_5_);stroke-width:18;stroke-miterlimit:10;" cx="635.979" cy="797.231" r="141.459"/>
	<linearGradient id="SVGID_6_" gradientUnits="userSpaceOnUse" x1="515.4092" y1="797.2314" x2="756.5479" y2="797.2314">
		<stop  offset="0" style="stop-color:#989899"/>
		<stop  offset="0.25" style="stop-color:#FFFFFF"/>
		<stop  offset="0.5" style="stop-color:#989899"/>
		<stop  offset="0.75" style="stop-color:#FFFFFF"/>
		<stop  offset="1" style="stop-color:#989899"/>
	</linearGradient>
	<linearGradient id="SVGID_7_" gradientUnits="userSpaceOnUse" x1="635.9785" y1="924.3008" x2="635.9785" y2="670.1621">
		<stop  offset="0" style="stop-color:#CDCCCB"/>
		<stop  offset="1" style="stop-color:#666766"/>
	</linearGradient>
	
		<circle style="fill:url(#SVGID_6_);stroke:url(#SVGID_7_);stroke-width:13;stroke-miterlimit:10;" cx="635.979" cy="797.231" r="120.569"/>
	<g>
		<defs>
			<circle id="SVGID_8_" cx="635.979" cy="797.231" r="115.8"/>
		</defs>
		<clipPath id="SVGID_9_">
			<use xlink:href="#SVGID_8_"  style="overflow:visible;"/>
		</clipPath>
		<path style="clip-path:url(#SVGID_9_);fill:#218241;" d="M644.888,912.824c0,0-7.476-16.383,15.908-31.016
			c23.422-14.612,43.857-46.201,43.273-90.069c-0.582-43.869-30.143-100.03-30.143-100.03s-40.047,67.848-56.429,78.988
			c0,0,28.433,25.714,27.39,64.34c0,0,22.339-44.463,26.999-65.542c0,0,15.826,26.321-23.967,101.802
			C647.92,871.297,631.915,899.949,644.888,912.824"/>
		<path style="clip-path:url(#SVGID_9_);" d="M634.937,655.704c-74.681,0-135.479,60.76-135.479,135.441
			c0,74.716,60.798,135.477,135.479,135.477c74.667,0,135.44-60.761,135.44-135.477
			C770.377,716.464,709.604,655.704,634.937,655.704 M634.937,914.243c-4.795,0-9.49-0.303-14.139-0.849
			c-0.182-0.594-0.303-1.165-0.303-1.735c-0.122-4.999,1.541-10.314,2.657-15.132c3.362-14.538,8.955-28.834,9.247-43.892
			c0.255-11.383-1.566-22.815-4.695-33.725c-8.581-30.046-27.681-56.174-52.316-75.129c-1.515-1.165-15.386,29.453-15.981,31.212
			c-7.475,22.316-9.44,47.473-2.658,70.237c2.513,8.398,6.735,15.8,12.051,22.767c3.035,3.969,6.396,7.705,9.939,11.225
			c1.941,1.917,13.846,10.023,13.918,11.966c0,0-1.456-43.87-16.103-69.621c0.28,0.499,1.819,1.069,2.293,1.397
			c2.16,1.491,4.126,3.227,5.959,5.072c7.257,7.281,12.474,16.443,16.406,25.873c4.599,11.079,7.379,22.838,8.895,34.718
			c0.85,6.736,0.547,16.079,2.865,23.603c-57.412-10.387-101.136-60.688-101.136-121.084c0-67.873,55.228-123.087,123.101-123.087
			c67.87,0,123.111,55.214,123.111,123.087S702.807,914.243,634.937,914.243"/>
	</g>
</g>
<g>
	<linearGradient id="SVGID_10_" gradientUnits="userSpaceOnUse" x1="819.0645" y1="927.6665" x2="885.9111" y2="927.6665">
		<stop  offset="0" style="stop-color:#989899"/>
		<stop  offset="0.25" style="stop-color:#FFFFFF"/>
		<stop  offset="0.5" style="stop-color:#989899"/>
		<stop  offset="0.75" style="stop-color:#FFFFFF"/>
		<stop  offset="1" style="stop-color:#989899"/>
	</linearGradient>
	<path style="fill:none;stroke:url(#SVGID_10_);stroke-width:3;stroke-miterlimit:10;" d="M874.066,920.729
		c0,13.248,0.252,23.593,1.265,34.951l-0.257,0.125c-4.036-8.707-8.96-17.665-15.268-27.636l-27.254-43.029h-11.988v85.05h10.347
		v-36.34c0-14.135-0.252-24.357-0.887-35.081l0.383-0.124c4.288,9.209,9.969,18.925,15.897,28.387l27.004,43.157h11.103v-85.05
		h-10.345V920.729z"/>
	<linearGradient id="SVGID_11_" gradientUnits="userSpaceOnUse" x1="902.9805" y1="939.6538" x2="917.084" y2="939.6538">
		<stop  offset="0" style="stop-color:#989899"/>
		<stop  offset="0.25" style="stop-color:#FFFFFF"/>
		<stop  offset="0.5" style="stop-color:#989899"/>
		<stop  offset="0.75" style="stop-color:#FFFFFF"/>
		<stop  offset="1" style="stop-color:#989899"/>
	</linearGradient>
	
		<rect x="904.48" y="909.116" style="fill:none;stroke:url(#SVGID_11_);stroke-width:3;stroke-miterlimit:10;" width="11.104" height="61.075"/>
	<linearGradient id="SVGID_12_" gradientUnits="userSpaceOnUse" x1="925.0459" y1="939.6538" x2="1017.834" y2="939.6538">
		<stop  offset="0" style="stop-color:#989899"/>
		<stop  offset="0.25" style="stop-color:#FFFFFF"/>
		<stop  offset="0.5" style="stop-color:#989899"/>
		<stop  offset="0.75" style="stop-color:#FFFFFF"/>
		<stop  offset="1" style="stop-color:#989899"/>
	</linearGradient>
	<path style="fill:none;stroke:url(#SVGID_12_);stroke-width:3;stroke-miterlimit:10;" d="M996.091,939.779
		c-2.021,7.195-3.66,13.628-4.668,19.812h-0.377c-1.393-6.184-3.157-12.617-5.43-19.937l-9.464-30.538h-9.339l-9.968,31.17
		c-2.019,6.559-4.037,13.121-5.425,19.305h-0.377c-1.142-6.309-2.776-12.617-4.542-19.434l-8.079-31.041h-11.357l18.423,61.075
		h10.096l9.845-29.021c2.145-6.563,4.035-12.872,5.549-20.189h0.253c1.518,7.189,3.284,13.246,5.428,20.062l9.336,29.148h10.097
		l19.684-61.075h-10.977L996.091,939.779z"/>
	<linearGradient id="SVGID_13_" gradientUnits="userSpaceOnUse" x1="1020.0869" y1="939.6543" x2="1072.085" y2="939.6543">
		<stop  offset="0" style="stop-color:#989899"/>
		<stop  offset="0.25" style="stop-color:#FFFFFF"/>
		<stop  offset="0.5" style="stop-color:#989899"/>
		<stop  offset="0.75" style="stop-color:#FFFFFF"/>
		<stop  offset="1" style="stop-color:#989899"/>
	</linearGradient>
	<path style="fill:none;stroke:url(#SVGID_13_);stroke-width:3;stroke-miterlimit:10;" d="M1069.282,932.713
		c0-12.238-4.543-24.983-23.218-24.983c-7.697,0-15.018,2.144-20.063,5.428l2.524,7.317c4.288-2.779,10.218-4.545,15.898-4.545
		c12.494,0,13.878,9.087,13.878,14.134v1.262c-23.593-0.127-36.716,7.952-36.716,22.713c0,8.832,6.307,17.54,18.674,17.54
		c8.706,0,15.269-4.289,18.676-9.086h0.378l0.882,7.699h10.093c-0.753-4.167-1.007-9.339-1.007-14.639V932.713z M1058.556,949.622
		c0,1.137-0.253,2.402-0.632,3.536c-1.768,5.17-6.813,10.218-14.76,10.218c-5.682,0-10.475-3.407-10.475-10.601
		c0-11.862,13.754-14.004,25.866-13.749V949.622z"/>
	<linearGradient id="SVGID_14_" gradientUnits="userSpaceOnUse" x1="1085.7061" y1="925.3965" x2="1099.8086" y2="925.3965">
		<stop  offset="0" style="stop-color:#989899"/>
		<stop  offset="0.25" style="stop-color:#FFFFFF"/>
		<stop  offset="0.5" style="stop-color:#989899"/>
		<stop  offset="0.75" style="stop-color:#FFFFFF"/>
		<stop  offset="1" style="stop-color:#989899"/>
	</linearGradient>
	
		<rect x="1087.206" y="880.601" style="fill:none;stroke:url(#SVGID_14_);stroke-width:3;stroke-miterlimit:10;" width="11.103" height="89.59"/>
	<linearGradient id="SVGID_15_" gradientUnits="userSpaceOnUse" x1="1114.0947" y1="891.894" x2="1130.8584" y2="891.894">
		<stop  offset="0" style="stop-color:#989899"/>
		<stop  offset="0.25" style="stop-color:#FFFFFF"/>
		<stop  offset="0.5" style="stop-color:#989899"/>
		<stop  offset="0.75" style="stop-color:#FFFFFF"/>
		<stop  offset="1" style="stop-color:#989899"/>
	</linearGradient>
	<path style="fill:none;stroke:url(#SVGID_15_);stroke-width:3;stroke-miterlimit:10;" d="M1122.539,885.017
		c-4.039,0-6.944,3.03-6.944,6.938c0,3.786,2.78,6.815,6.688,6.815c4.417,0,7.194-3.029,7.071-6.815
		C1129.354,888.047,1126.7,885.017,1122.539,885.017z"/>
	<linearGradient id="SVGID_16_" gradientUnits="userSpaceOnUse" x1="1115.4873" y1="939.6538" x2="1129.5898" y2="939.6538">
		<stop  offset="0" style="stop-color:#989899"/>
		<stop  offset="0.25" style="stop-color:#FFFFFF"/>
		<stop  offset="0.5" style="stop-color:#989899"/>
		<stop  offset="0.75" style="stop-color:#FFFFFF"/>
		<stop  offset="1" style="stop-color:#989899"/>
	</linearGradient>
	
		<rect x="1116.987" y="909.116" style="fill:none;stroke:url(#SVGID_16_);stroke-width:3;stroke-miterlimit:10;" width="11.103" height="61.075"/>
	<linearGradient id="SVGID_17_" gradientUnits="userSpaceOnUse" x1="1167.0967" y1="927.6045" x2="1234.9883" y2="927.6045">
		<stop  offset="0" style="stop-color:#989899"/>
		<stop  offset="0.25" style="stop-color:#FFFFFF"/>
		<stop  offset="0.5" style="stop-color:#989899"/>
		<stop  offset="0.75" style="stop-color:#FFFFFF"/>
		<stop  offset="1" style="stop-color:#989899"/>
	</linearGradient>
	<path style="fill:none;stroke:url(#SVGID_17_);stroke-width:3;stroke-miterlimit:10;" d="M1213.39,892.97
		c7.065,0,12.999,1.508,17.165,3.529l2.646-8.958c-2.901-1.515-9.588-3.787-20.189-3.787c-26.37,0-44.414,18.044-44.414,44.671
		c0,27.885,18.044,43.03,42.018,43.03c10.347,0,18.422-2.02,22.461-4.04l-2.27-8.709c-4.417,2.146-11.233,3.533-17.917,3.533
		c-20.695,0-32.682-13.374-32.682-34.193C1180.207,905.709,1193.455,892.97,1213.39,892.97z"/>
	<linearGradient id="SVGID_18_" gradientUnits="userSpaceOnUse" x1="1245.333" y1="927.3511" x2="1304.7363" y2="927.3511">
		<stop  offset="0" style="stop-color:#989899"/>
		<stop  offset="0.25" style="stop-color:#FFFFFF"/>
		<stop  offset="0.5" style="stop-color:#989899"/>
		<stop  offset="0.75" style="stop-color:#FFFFFF"/>
		<stop  offset="1" style="stop-color:#989899"/>
	</linearGradient>
	<path style="fill:none;stroke:url(#SVGID_18_);stroke-width:3;stroke-miterlimit:10;" d="M1283.175,929.685v-0.375
		c8.959-3.032,16.024-10.474,16.024-21.707c0-6.562-2.397-12.368-6.69-16.152c-5.297-4.796-12.868-6.94-24.605-6.94
		c-7.568,0-15.52,0.631-21.07,1.766v83.915h10.978v-36.845h10.347c9.968,0.381,14.512,4.795,17.035,16.527
		c2.4,10.6,4.292,17.919,5.679,20.318h11.355c-1.766-3.284-3.782-11.485-6.562-23.347
		C1293.646,938.013,1289.733,931.956,1283.175,929.685z M1269.044,925.017h-11.233v-31.041c1.769-0.505,5.555-1.006,10.854-1.006
		c11.607,0.122,19.555,4.916,19.555,15.896C1288.22,918.581,1280.775,925.017,1269.044,925.017z"/>
	<linearGradient id="SVGID_19_" gradientUnits="userSpaceOnUse" x1="1310.8457" y1="927.6665" x2="1400.8652" y2="927.6665">
		<stop  offset="0" style="stop-color:#989899"/>
		<stop  offset="0.25" style="stop-color:#FFFFFF"/>
		<stop  offset="0.5" style="stop-color:#989899"/>
		<stop  offset="0.75" style="stop-color:#FFFFFF"/>
		<stop  offset="1" style="stop-color:#989899"/>
	</linearGradient>
	<path style="fill:none;stroke:url(#SVGID_19_);stroke-width:3;stroke-miterlimit:10;" d="M1379.961,885.142l-15.141,41.136
		c-3.787,10.729-6.813,20.064-8.961,28.644h-0.375c-2.147-8.834-5.05-18.17-8.583-28.644l-14.514-41.136h-14.003l-5.931,85.05
		h10.473l2.272-36.464c0.755-12.747,1.387-27.006,1.638-37.607h0.255c2.396,10.097,5.804,21.074,9.843,33.062l13.754,40.507h8.328
		l15.014-41.264c4.288-11.735,7.822-22.337,10.725-32.305h0.383c-0.13,10.602,0.627,24.861,1.26,36.722l2.143,37.35h10.729
		l-5.3-85.05H1379.961z"/>
</g>
<g>
	<linearGradient id="SVGID_20_" gradientUnits="userSpaceOnUse" x1="800.1582" y1="927.6665" x2="1444.7224" y2="927.6665">
		<stop  offset="0" style="stop-color:#989899"/>
		<stop  offset="0.25" style="stop-color:#FFFFFF"/>
		<stop  offset="0.5" style="stop-color:#989899"/>
		<stop  offset="0.75" style="stop-color:#FFFFFF"/>
		<stop  offset="1" style="stop-color:#989899"/>
	</linearGradient>
	<path style="fill:url(#SVGID_20_);" d="M874.066,920.729c0,13.248,0.252,23.593,1.265,34.951l-0.257,0.125
		c-4.036-8.707-8.96-17.665-15.268-27.636l-27.254-43.029h-11.988v85.05h10.347v-36.34c0-14.135-0.252-24.357-0.887-35.081
		l0.383-0.124c4.288,9.209,9.969,18.925,15.897,28.387l27.004,43.157h11.103v-85.05h-10.345V920.729z"/>
	<linearGradient id="SVGID_21_" gradientUnits="userSpaceOnUse" x1="800.1514" y1="939.6538" x2="1444.7593" y2="939.6538">
		<stop  offset="0" style="stop-color:#989899"/>
		<stop  offset="0.25" style="stop-color:#FFFFFF"/>
		<stop  offset="0.5" style="stop-color:#989899"/>
		<stop  offset="0.75" style="stop-color:#FFFFFF"/>
		<stop  offset="1" style="stop-color:#989899"/>
	</linearGradient>
	<rect x="904.48" y="909.116" style="fill:url(#SVGID_21_);" width="11.104" height="61.075"/>
	<linearGradient id="SVGID_22_" gradientUnits="userSpaceOnUse" x1="800.1543" y1="939.6538" x2="1444.7368" y2="939.6538">
		<stop  offset="0" style="stop-color:#989899"/>
		<stop  offset="0.25" style="stop-color:#FFFFFF"/>
		<stop  offset="0.5" style="stop-color:#989899"/>
		<stop  offset="0.75" style="stop-color:#FFFFFF"/>
		<stop  offset="1" style="stop-color:#989899"/>
	</linearGradient>
	<path style="fill:url(#SVGID_22_);" d="M996.091,939.779c-2.021,7.195-3.66,13.628-4.668,19.812h-0.377
		c-1.393-6.184-3.157-12.617-5.43-19.937l-9.464-30.538h-9.339l-9.968,31.17c-2.019,6.559-4.037,13.121-5.425,19.305h-0.377
		c-1.142-6.309-2.776-12.617-4.542-19.434l-8.079-31.041h-11.357l18.423,61.075h10.096l9.845-29.021
		c2.145-6.563,4.035-12.872,5.549-20.189h0.253c1.518,7.189,3.284,13.246,5.428,20.062l9.336,29.148h10.097l19.684-61.075h-10.977
		L996.091,939.779z"/>
	<linearGradient id="SVGID_23_" gradientUnits="userSpaceOnUse" x1="800.1816" y1="939.6543" x2="1444.6864" y2="939.6543">
		<stop  offset="0" style="stop-color:#989899"/>
		<stop  offset="0.25" style="stop-color:#FFFFFF"/>
		<stop  offset="0.5" style="stop-color:#989899"/>
		<stop  offset="0.75" style="stop-color:#FFFFFF"/>
		<stop  offset="1" style="stop-color:#989899"/>
	</linearGradient>
	<path style="fill:url(#SVGID_23_);" d="M1069.282,932.713c0-12.238-4.543-24.983-23.218-24.983c-7.697,0-15.018,2.144-20.063,5.428
		l2.524,7.317c4.288-2.779,10.218-4.545,15.898-4.545c12.494,0,13.878,9.087,13.878,14.134v1.262
		c-23.593-0.127-36.716,7.952-36.716,22.713c0,8.832,6.307,17.54,18.674,17.54c8.706,0,15.269-4.289,18.676-9.086h0.378l0.882,7.699
		h10.093c-0.753-4.167-1.007-9.339-1.007-14.639V932.713z M1058.556,949.622c0,1.137-0.253,2.402-0.632,3.536
		c-1.768,5.17-6.813,10.218-14.76,10.218c-5.682,0-10.475-3.407-10.475-10.601c0-11.862,13.754-14.004,25.866-13.749V949.622z"/>
	<linearGradient id="SVGID_24_" gradientUnits="userSpaceOnUse" x1="800.167" y1="925.3965" x2="1444.7183" y2="925.3965">
		<stop  offset="0" style="stop-color:#989899"/>
		<stop  offset="0.25" style="stop-color:#FFFFFF"/>
		<stop  offset="0.5" style="stop-color:#989899"/>
		<stop  offset="0.75" style="stop-color:#FFFFFF"/>
		<stop  offset="1" style="stop-color:#989899"/>
	</linearGradient>
	<rect x="1087.206" y="880.601" style="fill:url(#SVGID_24_);" width="11.103" height="89.59"/>
	<linearGradient id="SVGID_25_" gradientUnits="userSpaceOnUse" x1="800.0459" y1="891.894" x2="1444.8367" y2="891.894">
		<stop  offset="0" style="stop-color:#989899"/>
		<stop  offset="0.25" style="stop-color:#FFFFFF"/>
		<stop  offset="0.5" style="stop-color:#989899"/>
		<stop  offset="0.75" style="stop-color:#FFFFFF"/>
		<stop  offset="1" style="stop-color:#989899"/>
	</linearGradient>
	<path style="fill:url(#SVGID_25_);" d="M1122.539,885.017c-4.039,0-6.944,3.03-6.944,6.938c0,3.786,2.78,6.815,6.688,6.815
		c4.417,0,7.194-3.029,7.071-6.815C1129.354,888.047,1126.7,885.017,1122.539,885.017z"/>
	<linearGradient id="SVGID_26_" gradientUnits="userSpaceOnUse" x1="800.166" y1="939.6538" x2="1444.7173" y2="939.6538">
		<stop  offset="0" style="stop-color:#989899"/>
		<stop  offset="0.25" style="stop-color:#FFFFFF"/>
		<stop  offset="0.5" style="stop-color:#989899"/>
		<stop  offset="0.75" style="stop-color:#FFFFFF"/>
		<stop  offset="1" style="stop-color:#989899"/>
	</linearGradient>
	<rect x="1116.987" y="909.116" style="fill:url(#SVGID_26_);" width="11.103" height="61.075"/>
	<linearGradient id="SVGID_27_" gradientUnits="userSpaceOnUse" x1="800.1729" y1="927.6045" x2="1444.7157" y2="927.6045">
		<stop  offset="0" style="stop-color:#989899"/>
		<stop  offset="0.25" style="stop-color:#FFFFFF"/>
		<stop  offset="0.5" style="stop-color:#989899"/>
		<stop  offset="0.75" style="stop-color:#FFFFFF"/>
		<stop  offset="1" style="stop-color:#989899"/>
	</linearGradient>
	<path style="fill:url(#SVGID_27_);" d="M1213.39,892.97c7.065,0,12.999,1.508,17.165,3.529l2.646-8.958
		c-2.901-1.515-9.588-3.787-20.189-3.787c-26.37,0-44.414,18.044-44.414,44.671c0,27.885,18.044,43.03,42.018,43.03
		c10.347,0,18.422-2.02,22.461-4.04l-2.27-8.709c-4.417,2.146-11.233,3.533-17.917,3.533c-20.695,0-32.682-13.374-32.682-34.193
		C1180.207,905.709,1193.455,892.97,1213.39,892.97z"/>
	<linearGradient id="SVGID_28_" gradientUnits="userSpaceOnUse" x1="800.1484" y1="927.3511" x2="1444.73" y2="927.3511">
		<stop  offset="0" style="stop-color:#989899"/>
		<stop  offset="0.25" style="stop-color:#FFFFFF"/>
		<stop  offset="0.5" style="stop-color:#989899"/>
		<stop  offset="0.75" style="stop-color:#FFFFFF"/>
		<stop  offset="1" style="stop-color:#989899"/>
	</linearGradient>
	<path style="fill:url(#SVGID_28_);" d="M1283.175,929.685v-0.375c8.959-3.032,16.024-10.474,16.024-21.707
		c0-6.562-2.397-12.368-6.69-16.152c-5.297-4.796-12.868-6.94-24.605-6.94c-7.568,0-15.52,0.631-21.07,1.766v83.915h10.978v-36.845
		h10.347c9.968,0.381,14.512,4.795,17.035,16.527c2.4,10.6,4.292,17.919,5.679,20.318h11.355
		c-1.766-3.284-3.782-11.485-6.562-23.347C1293.646,938.013,1289.733,931.956,1283.175,929.685z M1269.044,925.017h-11.233v-31.041
		c1.769-0.505,5.555-1.006,10.854-1.006c11.607,0.122,19.555,4.916,19.555,15.896
		C1288.22,918.581,1280.775,925.017,1269.044,925.017z"/>
	<linearGradient id="SVGID_29_" gradientUnits="userSpaceOnUse" x1="800.1533" y1="927.6665" x2="1444.7272" y2="927.6665">
		<stop  offset="0" style="stop-color:#989899"/>
		<stop  offset="0.25" style="stop-color:#FFFFFF"/>
		<stop  offset="0.5" style="stop-color:#989899"/>
		<stop  offset="0.75" style="stop-color:#FFFFFF"/>
		<stop  offset="1" style="stop-color:#989899"/>
	</linearGradient>
	<path style="fill:url(#SVGID_29_);" d="M1379.961,885.142l-15.141,41.136c-3.787,10.729-6.813,20.064-8.961,28.644h-0.375
		c-2.147-8.834-5.05-18.17-8.583-28.644l-14.514-41.136h-14.003l-5.931,85.05h10.473l2.272-36.464
		c0.755-12.747,1.387-27.006,1.638-37.607h0.255c2.396,10.097,5.804,21.074,9.843,33.062l13.754,40.507h8.328l15.014-41.264
		c4.288-11.735,7.822-22.337,10.725-32.305h0.383c-0.13,10.602,0.627,24.861,1.26,36.722l2.143,37.35h10.729l-5.3-85.05H1379.961z"
		/>
</g>
</svg>
